<?xml version="1.0" encoding="UTF-8"?>
<svg width="120px" height="120px" viewBox="0 0 120 120" version="1.1" xmlns="http://www.w3.org/2000/svg" xmlns:xlink="http://www.w3.org/1999/xlink">
    <title>Complementary Delivery 60 Copy 3</title>
    <g id="Page-1" stroke="none" stroke-width="1" fill="none" fill-rule="evenodd">
        <g id="Iconography-Copy-2" transform="translate(-822.000000, -2277.000000)">
            <g id="Complementary-Delivery-60-Copy-3" transform="translate(822.000000, 2277.000000)">
                <rect id="Rectangle" x="0" y="0" width="120" height="120"></rect>
                <path d="M77.0651916,32.8584069 C72.6659903,32.2533155 68.2311986,31.9446604 63.7907202,31.9345227 C56.8524943,31.7466992 49.9094559,32.0178047 43.0068875,32.7460709 C42.7351585,32.7782828 42.540878,33.0249199 42.5728286,33.2971044 C42.6092279,33.56645 42.8519703,33.7586064 43.122024,33.7318511 C49.9745721,33.0055213 56.8677576,32.7363736 63.7559639,32.9261893 C68.1371904,32.9456865 72.5126497,33.2468414 76.8553542,33.8277968 C76.8897423,33.8346895 76.9247124,33.8382548 76.9597818,33.8384433 C77.2124974,33.8382785 77.4245031,33.6474552 77.4515669,33.3957948 C77.4786307,33.1441344 77.3120596,32.9124695 77.0651758,32.8584069 L77.0651916,32.8584069 Z" id="Path" fill="#4B4B4B" fill-rule="nonzero"></path>
                <path d="M47.1360074,30.1274363 C47.2673257,30.1274363 47.3932873,30.075297 47.4861434,29.9822938 C47.5789995,29.8892905 47.631132,29.7631293 47.6310563,29.6316029 L47.6310563,18.9557004 C47.6310563,18.6818592 47.4094153,18.4598671 47.1360074,18.4598671 C46.8625994,18.4598671 46.6409584,18.6818592 46.6409584,18.9557004 L46.6409584,29.6316029 C46.6408827,29.7631293 46.6930152,29.8892905 46.7858713,29.9822938 C46.8787274,30.075297 47.004689,30.1274363 47.1360074,30.1274363 Z" id="Path" fill="#4B4B4B" fill-rule="nonzero"></path>
                <path d="M72.4569911,30.2271901 C72.5883082,30.2271901 72.7142674,30.1750452 72.8071225,30.0820429 C72.8999777,29.9890405 72.9521116,29.8628818 72.9520401,29.7313567 L72.9520401,19.1522884 C72.9520401,18.8784472 72.7303991,18.6564551 72.4569911,18.6564551 C72.1835832,18.6564551 71.9619422,18.8784472 71.9619422,19.1522884 L71.9619422,29.7313567 C71.9618665,29.8628831 72.013999,29.9890443 72.1068551,30.0820475 C72.1997112,30.1750507 72.3256728,30.2271901 72.4569911,30.2271901 Z" id="Path" fill="#4B4B4B" fill-rule="nonzero"></path>
                <path d="M46.4789943,35.3491879 C46.3476772,35.3491879 46.2217181,35.4013328 46.1288629,35.4943351 C46.0360077,35.5873375 45.9838739,35.7134962 45.9839454,35.8450213 L45.9839454,54.1957733 C45.9839454,54.4696145 46.2055863,54.6916067 46.4789943,54.6916067 C46.7524022,54.6916067 46.9740432,54.4696145 46.9740432,54.1957733 L46.9740432,35.8450213 C46.9741189,35.7134949 46.9219864,35.5873337 46.8291303,35.4943305 C46.7362742,35.4013273 46.6103126,35.3491879 46.4789943,35.3491879 L46.4789943,35.3491879 Z" id="Path" fill="#4B4B4B" fill-rule="nonzero"></path>
                <path d="M73.728451,35.9069965 C73.5971327,35.9069965 73.4711711,35.9591358 73.378315,36.052139 C73.2854589,36.1451423 73.2333264,36.2713035 73.2334021,36.4028299 L73.2334021,54.5559467 C73.2334021,54.8297879 73.455043,55.05178 73.728451,55.05178 C74.001859,55.05178 74.2234999,54.8297879 74.2234999,54.5559467 L74.2234999,36.4028933 C74.2235925,36.2713559 74.1714674,36.1451784 74.0786095,36.0521614 C73.9857516,35.9591445 73.8597803,35.9069965 73.728451,35.9069965 L73.728451,35.9069965 Z" id="Path" fill="#4B4B4B" fill-rule="nonzero"></path>
                <path d="M118.422038,58.6636771 L76.3873944,58.6636771 C76.5268386,58.3814703 76.6002478,58.0711494 76.6020476,57.7562783 L76.6020476,55.8734603 C77.2002876,55.6554935 77.5991284,55.0867406 77.6008583,54.4491414 L77.6008583,37.5908081 C77.5983629,37.1652495 77.4175331,36.7603054 77.1024827,36.4747626 C77.6978133,35.7830614 78.017148,34.8955298 77.9992103,33.9824742 C77.8765687,32.8581138 77.3131589,31.8285501 76.4328438,31.1201275 L76.4328438,20.9832633 C76.3706779,20.0322474 75.6273799,19.2676488 74.6798637,19.1800483 C64.8243336,17.6138298 54.7844357,17.6066394 44.9266793,19.1587394 C43.9801838,19.2457194 43.2378389,20.0099889 43.1770735,20.9600186 L43.1770735,31.1638719 C41.7415149,32.6289808 41.6190335,34.9351833 42.8913075,36.5445601 C42.6220503,36.826185 42.4712963,37.2007728 42.4702862,37.590697 L42.4702862,54.4490303 C42.4709431,55.0597228 42.8354593,55.6110693 43.3965583,55.850057 L43.3965583,57.7562942 C43.398349,58.0711737 43.4717814,58.3815013 43.6112749,58.663693 L1.57796248,58.663693 C0.707065301,58.6641563 0,59.3708637 0,60.2431403 L0,60.9761803 C0,61.8486714 0.706851724,62.5557407 1.57796248,62.556659 L2.2258825,62.556659 C6.95098725,65.36941 12.3543102,66.8339084 17.8507986,66.7915834 L46.2508757,66.7915834 C46.248452,66.7998023 46.2404203,66.8045306 46.2382025,66.8128765 C46.0849512,67.4026563 46.5901545,67.7474231 47.1253301,68.1125151 C47.9100319,68.6205507 48.6188653,69.2374383 49.2306742,69.9447661 C49.4810873,70.2962614 49.6736779,70.685658 49.8011289,71.0981617 C50.4039738,72.7417701 51.1546264,74.327138 52.0438352,75.8347266 C52.166639,76.0448647 52.2280409,76.1494578 52.3232646,76.2898778 C52.8789487,77.1430071 53.64956,77.8341655 54.5572738,78.2935522 C55.3079588,78.7271511 56.0244247,79.2176352 56.7004,79.7607111 C57.1548311,80.1248511 57.5691514,80.4521646 57.9143233,80.7242938 C58.3513604,81.0690606 58.7642233,81.3944542 58.8435103,81.472899 C59.3191937,81.9479394 59.7551144,82.4613126 60.1468751,83.0078403 C60.5802197,83.6093017 61.0598084,84.1759419 61.5812654,84.7025907 C61.986352,85.1158703 62.4263116,85.4933441 62.8962421,85.8308059 C63.1350695,86.0089886 63.3874257,86.1958979 63.7229342,86.4883682 C64.7586041,87.5158038 65.6641495,88.6669439 66.4191686,89.9158538 C66.256064,90.2078326 66.2063097,90.5498394 66.279446,90.8762949 C66.34528,91.2268713 66.537762,91.5408662 66.8201186,91.7582911 L72.8147412,102.34058 C72.9201052,102.526803 73.1173421,102.641761 73.3310495,102.641761 L73.3610217,102.641761 L80.4231916,102.280541 C80.5805924,102.272271 80.728328,102.201943 80.8341218,102.084921 L84.9395426,97.5294421 C85.1135926,97.3367916 85.1425703,97.0532514 85.011099,96.8292778 L78.8688172,86.3463457 C78.842221,85.7176967 78.6549777,85.1064053 78.3250079,84.5709767 C78.0654343,84.1727573 77.6555436,83.8971742 77.1892627,83.8073775 C77.0350696,83.5784787 76.8475528,83.3739734 76.6329387,83.2006521 C76.6243684,83.193877 76.5764476,83.1593987 76.4919487,83.1042938 C76.4988873,82.8906333 76.5135725,82.6508403 76.535212,82.3687786 C76.7776612,80.9678911 76.6048798,79.5265503 76.0382304,78.2229614 C75.8057514,77.8331621 75.5533777,77.4556169 75.2821125,77.0918267 C74.9703026,76.6995224 74.7103201,76.2685713 74.5086006,75.8096414 C73.8412418,73.6909898 73.5346447,71.4749523 73.6016551,69.2543757 L73.5726492,68.2704519 C73.5568412,67.7715433 73.4875915,67.2757771 73.3660911,66.7916786 L102.677201,66.7916786 C107.860603,66.8468337 112.945767,65.3741025 117.299884,62.5567542 L118.422038,62.5567542 C119.293148,62.5558359 120,61.8487666 120,60.9762755 L120,60.2432355 C120,59.3709155 119.292978,58.6641405 118.422038,58.6636771 Z M43.6585778,54.4490938 L43.6585778,37.5907605 C43.6591693,37.4171285 43.7927357,37.2730301 43.9655715,37.2595597 L45.9757394,37.105653 C50.6409854,36.7483039 55.3376768,36.5701054 60.035794,36.5701054 C64.7324855,36.5701054 69.4306027,36.7492718 74.0948981,37.105653 L76.1060323,37.2595597 C76.2788787,37.2731628 76.412511,37.4171094 76.4135013,37.5907605 L76.4135013,54.4490938 C76.4128582,54.6328476 76.2642915,54.7816497 76.0808284,54.7822938 L43.9907121,54.7822938 C43.8072936,54.7817523 43.6585778,54.6328035 43.6585778,54.4490938 Z M75.9179771,36.0509163 L74.1857812,35.9183027 C64.7658651,35.2016688 55.3052477,35.2016688 45.8853316,35.9183027 L44.0001853,36.0626894 L43.9922646,36.0528838 C42.8966704,34.8864926 42.9341182,33.0565506 44.07651,31.9361026 C50.4799111,31.3054529 56.9151568,31.057742 63.347996,31.1942883 C67.4299718,31.2172569 71.5077106,31.4616176 75.5633003,31.926297 C76.2463053,32.4365842 76.6964535,33.1999063 76.8129464,34.0453379 C76.8102901,34.8103463 76.4852806,35.5386752 75.9179771,36.0509163 L75.9179771,36.0509163 Z M45.110885,20.3344118 C54.8483341,18.8005255 64.7659016,18.8080213 74.5010283,20.3566251 C74.9254872,20.4244075 75.2455819,20.6936331 75.2455819,20.9831998 L75.2455819,30.6799069 C73.9653616,30.5177495 70.6969615,30.2073817 63.3808514,30.0050341 C57.0340817,29.8712876 50.6849148,30.1070724 44.3654601,30.7111959 L44.3654601,20.9600186 C44.3654601,20.6694841 44.6854123,20.4012263 45.1108533,20.3344118 L45.110885,20.3344118 Z M44.5848658,57.7562783 L44.5848658,55.9714687 L75.4147064,55.9714687 L75.4147064,57.7562783 C75.4136868,58.2570034 75.0086602,58.6626646 74.5087273,58.6636771 L45.4903539,58.6636771 C44.9904467,58.6627943 44.5854849,58.256978 44.5848658,57.7562783 L44.5848658,57.7562783 Z M68.555578,70.0639723 C68.90459,71.7695759 69.0736558,73.5071963 69.0599892,75.2481994 C68.7855651,74.0438094 68.6385314,72.8138235 68.6213204,71.5785885 C68.6000467,70.3408364 68.4693286,69.1074056 68.2306991,67.8927618 C68.149919,67.4901841 67.9744703,67.1126984 67.7189057,66.7916151 L68.9314032,66.7916151 C68.5069348,67.8267399 68.376856,68.9593524 68.555578,70.0639723 L68.555578,70.0639723 Z M64.0015081,68.3905467 C64.0948107,68.6633213 64.1615142,68.9445064 64.2006841,69.2301631 L64.2413019,69.6001103 C64.420169,71.2154322 64.7537448,74.2233555 63.8197262,74.804377 C63.4260789,74.9806731 62.9802954,75.0007477 62.5724405,74.860545 C61.4738236,74.5570437 60.5349486,73.8397812 59.9522456,72.8588222 C59.9111526,72.7358238 59.8265428,72.4840357 59.60465,71.8816735 C59.0966905,70.2752712 58.3720769,68.7458738 57.4508941,67.3358735 C57.3204022,67.1472518 57.18015,66.9655948 57.0307124,66.7916469 L64.014514,66.7916469 C63.7689648,67.2952135 63.7641833,67.8830398 64.0015081,68.3905467 L64.0015081,68.3905467 Z M52.5237713,67.1499955 C52.3818661,67.0224861 52.2330858,66.9028675 52.0781005,66.7916786 L52.5439534,66.7916786 C52.5318565,66.8249654 52.5216488,66.8589108 52.5133792,66.8933522 C52.502023,66.9788593 52.505539,67.0656903 52.5237713,67.1499955 L52.5237713,67.1499955 Z M64.502355,85.591727 C64.1378406,85.2731085 63.8642093,85.0697137 63.6050888,84.876061 C63.1822693,84.5731382 62.7866034,84.2338956 62.4225793,83.862181 C61.9405539,83.375257 61.4976332,82.8510037 61.0979393,82.2943005 C60.671089,81.7006666 60.1965345,81.1429496 59.6790103,80.6267138 C59.5571886,80.5056511 59.2753355,80.2829149 58.6493085,79.7889538 C58.3065446,79.5187762 57.894648,79.1933826 57.4431159,78.8311942 C56.7244497,78.2537164 55.9627299,77.7321488 55.1646236,77.2710566 C54.4086996,76.9003113 53.7671702,76.3313867 53.308198,75.6247313 C53.226012,75.5027166 53.1742735,75.4136253 53.0693706,75.233491 C52.2149806,73.7855335 51.4939299,72.2627013 50.9151395,70.6838354 C50.7413503,70.137801 50.4761908,69.6253127 50.130982,69.1682514 C49.4799578,68.4096753 48.7262203,67.7460091 47.8916659,67.1965325 C48.6239413,67.1592864 49.3580986,67.1939939 50.0836157,67.3001577 C50.3611124,67.3408239 50.6057379,67.389249 50.7096744,67.4134615 C52.4293555,67.8269786 54.4386205,71.8949698 54.8209566,72.946311 C55.0893286,73.9399134 55.2674195,74.669431 55.3966867,75.202551 C55.7051219,76.4760255 55.7979377,76.8595229 56.351933,77.3873117 C56.6689109,77.681299 57.0268572,77.9275947 57.4145536,78.1184794 C57.8939202,78.3716529 58.3515356,78.6641438 58.7827104,78.9929549 C59.4574045,79.5016871 60.0812313,80.0747781 60.645425,80.7041749 C60.8648994,80.9485989 61.24065,80.9685427 61.4846873,80.7487205 C61.7287247,80.5288984 61.748637,80.1525524 61.5291625,79.9081283 C60.9134695,79.2217572 60.2327952,78.5967817 59.4966897,78.0419703 C59.0194189,77.6787816 58.5133427,77.3552223 57.9835034,77.0745162 C57.6877161,76.9314778 57.4140202,76.7465498 57.1708311,76.5254185 C56.8783483,76.2465142 56.8430533,76.1273873 56.5510615,74.9226789 C56.408931,74.3358026 56.2140956,73.5310453 55.9008286,72.3873442 C54.8947625,68.7111962 54.3349374,67.6100971 53.9211082,67.1239583 C54.6107182,66.932739 55.3484168,67.0324961 55.9627058,67.4000383 C56.1593413,67.5856769 56.332865,67.7944292 56.4795052,68.0217578 C57.3391815,69.3485029 58.0153899,70.7858091 58.4896731,72.2944449 C58.7043263,72.8764659 58.7865123,73.1205111 58.8261479,73.2386702 C58.8521824,73.3334301 58.8907159,73.4242899 58.94073,73.5088478 C59.6930691,74.7391786 60.8864218,75.6350139 62.2765676,76.0130203 C62.9964108,76.246534 63.7802749,76.1751618 64.4462759,75.8154645 C66.017474,74.8383317 65.6877635,71.8604281 65.422845,69.468417 L65.3822273,69.1023413 C65.3355062,68.7406731 65.2532595,68.3845065 65.136683,68.0390207 C65.0593445,67.7891683 64.9636139,67.4782927 65.0158277,67.4066389 C65.1766892,67.2504442 65.3912718,67.1620489 65.6153042,67.1596901 C66.0115044,67.1056017 66.4129187,67.211517 66.731089,67.4540961 C66.912758,67.6418017 67.0308138,67.8820292 67.0685144,68.1407102 C67.2927017,69.2900814 67.4150046,70.4570525 67.4339951,71.6279973 C67.444991,73.0975371 67.6395587,74.5599224 68.0131628,75.9810649 C68.0840163,76.2435961 68.1695586,76.5019274 68.2693842,76.7548346 C69.4393314,79.684329 73.9537498,82.8675314 75.8943098,84.133263 C76.7680672,84.8223047 76.867172,86.5772057 76.6664911,88.0660385 C76.1830075,88.4299239 75.7793201,88.8894173 75.4804648,89.4160221 C75.1295091,90.0264394 74.9416876,90.7172059 74.9351506,91.4215687 C74.915808,91.8215198 74.8964655,91.8534753 74.8316893,91.9009325 C74.5822322,92.0820346 73.98952,91.8515395 73.2401823,91.5610209 C71.8613992,90.9565611 70.3774206,90.6294876 68.8726627,90.5984061 C68.6627531,90.6060991 68.4549603,90.6432616 68.2553644,90.7088063 C67.268341,88.8238252 66.0031076,87.0987298 64.502355,85.591727 L64.502355,85.591727 Z M80.1167048,101.103948 L73.6665739,101.434181 L68.28361,91.9322374 C68.3818277,91.9090086 68.4741523,91.8834633 68.5545007,91.8603455 C68.6575102,91.8255362 68.7637566,91.801201 68.871633,91.7877079 C70.2294342,91.8202141 71.5675841,92.1199688 72.8098462,92.6698946 C73.376631,92.9362934 73.9856395,93.1011555 74.609242,93.1570013 C74.808066,93.1539797 75.0045059,93.1131445 75.1881087,93.0366685 L77.4122645,94.0644159 L80.3535521,100.513153 L80.8562049,100.283515 L80.1167048,101.103948 Z M81.3202994,99.7687365 L78.3096099,93.169647 L76.0363453,92.117687 C76.0876435,91.9084099 76.1162133,91.6941935 76.1215571,91.4787681 C76.1190401,90.9613139 76.2542042,90.4525296 76.5131447,90.0047547 C76.7910088,89.5331068 77.1718019,89.1305285 77.6270127,88.8271625 C77.9491646,88.6042167 78.2342241,88.3318136 78.4717008,88.0199775 L83.7658094,97.0558538 L81.3202994,99.7687365 Z M72.1553202,66.901111 C72.3042405,67.357068 72.3818626,67.8333495 72.3854348,68.3130698 L72.4144407,69.2863311 C72.3446348,71.6504112 72.6808457,74.0089314 73.4084039,76.2589854 C73.6457902,76.8065579 73.9522079,77.3214297 74.320181,77.791039 C74.5692565,78.1233513 74.8006639,78.4685868 75.0134396,78.8253077 C75.4388552,79.9229262 75.5555634,81.116383 75.3508649,82.2758158 L75.3473639,82.3256847 C73.0450981,80.8583407 71.0687394,78.932426 69.5411134,76.6676314 L69.8105626,76.4090047 C70.4255163,75.8192249 70.4042411,74.1709638 69.7293429,69.8779515 C69.5549496,68.8411646 69.727994,67.7757186 70.2214928,66.8477514 C70.2296184,66.8294306 70.2367418,66.8106802 70.2428314,66.7915834 L72.0917955,66.7915834 C72.1084792,66.8305267 72.1298093,66.8673036 72.1553202,66.901111 L72.1553202,66.901111 Z M102.677264,65.6024402 L17.8507669,65.6024402 C13.2816633,65.6227223 8.7702635,64.5801158 4.67196277,62.5567542 L115.007863,62.5567542 C111.215392,64.5856222 106.976645,65.632597 102.677201,65.6024402 L102.677264,65.6024402 Z M118.81277,60.9762755 C118.81277,61.1923215 118.637853,61.3674441 118.422148,61.3675317 L1.57796248,61.3675317 C1.36364555,61.3644842 1.19078921,61.1909387 1.18825997,60.9762755 L1.18825997,60.2432355 C1.19117483,60.0288887 1.36395473,59.855835 1.57796248,59.8529155 L118.422038,59.8529155 C118.636288,59.8556155 118.809459,60.028652 118.81277,60.2432355 L118.81277,60.9762755 Z" id="Shape" fill="#4B4B4B" fill-rule="nonzero"></path>
                <path d="M78.5136018,97.458144 C77.8945331,97.1416572 77.136519,97.3875708 76.8202769,98.0074894 C76.5040347,98.627408 76.7492457,99.3867249 77.3680528,99.7037245 C77.9868599,100.020724 78.7450768,99.7754386 79.0618308,99.1557821 C79.3765287,98.5352072 79.1315408,97.7765813 78.5136018,97.458144 Z" id="Shape" fill="#4B4B4B" fill-rule="nonzero"></path>
                <path d="M49.9105783,48.4132301 L51.2058481,48.4132301 L52.1448252,45.8941429 L52.6940206,45.8941429 L53.7880866,48.8330939 L53.2808555,48.8330939 L52.98324,48.0353813 L51.8178711,48.0353813 L51.5244853,48.8330939 L49.4285195,48.8330939 L49.4285195,45.8941429 L49.9105783,45.8941429 L49.9105783,48.4132301 Z M51.964564,47.6364933 L52.8364838,47.6364933 L52.4005556,46.4651208 L51.964564,47.6364933 Z M54.0688467,50.4033703 C53.909528,50.3613395 53.7460589,50.2984123 53.7460589,50.1010468 C53.7460589,49.9163271 53.909528,49.8197625 54.1443159,49.8197625 C54.358082,49.8197625 54.5215511,49.9247364 54.5215511,50.1346683 L54.3413691,50.1346683 C54.3371394,50.025458 54.2575039,49.9750972 54.1443159,49.9750972 C53.9808309,49.9750972 53.9347161,50.0381037 53.9347161,50.1010468 C53.9347161,50.2060048 54.0730763,50.2269964 54.2197692,50.2647749 C54.3790245,50.3068057 54.5425095,50.3697488 54.5425095,50.5671143 C54.5425095,50.7853761 54.3539156,50.8693743 54.1652584,50.8693743 C53.8885855,50.8693743 53.7293461,50.7644004 53.7251164,50.5166741 L53.9053775,50.5166741 C53.9053775,50.6678359 54.0101695,50.7140396 54.1651792,50.7140396 C54.3035553,50.7140396 54.3538364,50.6426396 54.3538364,50.5671143 C54.3539948,50.4621404 54.2156029,50.4411647 54.0688467,50.4033703 Z M55.5318469,50.0548431 L55.3390234,50.8483827 L55.1503662,50.8483827 L54.8778912,49.8407383 L55.0539227,49.8407383 L55.2592928,50.6006564 L55.4437836,49.8407383 L55.6324091,49.8407383 L55.8252327,50.5922629 L56.0306661,49.8407383 L56.1983174,49.8407383 L55.9258425,50.8483827 L55.7372803,50.8483827 L55.5318469,50.0548431 Z M55.6533517,47.7204915 L55.6533517,48.8330939 L55.1714196,48.8330939 L55.1714196,45.8941429 L56.4373666,45.8941429 C56.6960695,45.8724453 56.9530746,45.952225 57.1541816,46.1166571 C57.341709,46.2954747 57.4439182,46.5460902 57.4350209,46.8052704 C57.4439019,47.0656554 57.3417892,47.3175341 57.1541816,47.4980091 C56.9530602,47.6624143 56.6960662,47.7421905 56.4373666,47.7205232 L55.6533517,47.7204915 Z M55.6533517,47.3006119 L56.3912201,47.3006119 C56.5168895,47.3146389 56.6436596,47.2865979 56.7517425,47.220866 C56.873399,47.1181321 56.9400963,46.9643324 56.9320195,46.8051593 C56.9400887,46.6472002 56.8732689,46.4946885 56.7517425,46.3936891 C56.6436596,46.3279572 56.5168895,46.2999162 56.3912201,46.3139432 L55.6534467,46.3139432 L55.6533517,47.3006119 Z M56.6175169,49.8407383 L56.8062691,49.8407383 L56.8062691,50.8483827 L56.6176119,50.8483827 L56.6175169,49.8407383 Z M58.0427667,49.9960729 L57.728375,49.9960729 L57.728375,50.8483827 L57.5397336,50.8483827 L57.5397336,49.9960729 L57.2253261,49.9960729 L57.2253261,49.8407383 L58.0427508,49.8407383 L58.0427667,49.9960729 Z M62.2557676,48.0353813 L61.0778522,48.0353813 L60.7885535,48.8330939 L59.912515,48.8330939 L59.015423,47.7204915 L58.4033999,47.7204915 L58.4033999,48.8330939 L57.9213569,48.8330939 L57.9213569,45.8941429 L59.2920959,45.8941429 C59.5508024,45.8724563 59.8078084,45.9522345 60.0089267,46.1166571 C60.1964541,46.2954747 60.2986634,46.5460902 60.289766,46.8052704 C60.322147,47.2422219 60.0070327,47.6279673 59.5729985,47.6826971 L60.3736154,48.6777592 L61.4090043,45.8941429 L61.9579462,45.8941429 L63.0520756,48.8330939 L62.5448603,48.8330939 L62.2557676,48.0353813 Z M58.3782594,50.8483827 L58.3782594,50.7140396 L58.9441676,49.9960729 L58.4201603,49.9960729 L58.4201603,49.8407383 L59.1745832,49.8407383 L59.1745832,49.9750972 L58.6002947,50.6930639 L59.1955257,50.6930639 L59.1955257,50.8483827 L58.3782594,50.8483827 Z M59.2459494,47.300596 C59.3716185,47.3146182 59.4983871,47.2865775 59.6064718,47.2208501 C59.7281183,47.11811 59.7948087,46.9643129 59.7867329,46.8051435 C59.7947908,46.6471899 59.72798,46.4946851 59.6064718,46.3936732 C59.4983871,46.3279458 59.3716185,46.2999052 59.2459494,46.3139273 L58.3992177,46.3139273 L58.3992177,47.3005167 L59.2459494,47.300596 Z M60.3819797,49.9960571 L59.8454101,49.9960571 L59.8454101,50.2521927 L60.3274531,50.2521927 L60.3274531,50.4075273 L59.8454101,50.4075273 L59.8454101,50.6931273 L60.3903599,50.6931273 L60.3903599,50.8484461 L59.6567529,50.8484461 L59.6567529,49.8408017 L60.3819797,49.8408017 L60.3819797,49.9960571 Z M61.6017803,49.9456963 C61.6462451,50.0065517 61.6697776,50.0802233 61.6688376,50.1556281 C61.6750089,50.3045078 61.5651928,50.4328239 61.4173528,50.4494788 L61.7317445,50.8483668 L61.5221447,50.8483668 L61.2245292,50.4705339 L61.0610443,50.4705339 L61.0610443,50.8483668 L60.8724029,50.8483668 L60.8724029,49.8407224 L61.2916024,49.8407224 C61.4718002,49.8407383 61.5472694,49.8785327 61.6017169,49.9457121 L61.6017803,49.9456963 Z M61.0610443,49.9960571 L61.0610443,50.3151357 L61.2873727,50.3151357 C61.3796182,50.3151357 61.4089567,50.3025535 61.434129,50.2773413 C61.4899968,50.2058225 61.4899968,50.1053703 61.434129,50.0338515 C61.4089567,50.0086393 61.3796182,49.9960571 61.2873727,49.9960571 L61.0610443,49.9960571 Z M61.2202995,47.6364775 L62.1131935,47.6364775 L61.6688059,46.3979255 L61.2202995,47.6364775 Z M62.1299381,50.8483668 L62.1299381,49.8407224 L62.3185953,49.8407224 L62.3185953,50.693048 L62.82166,50.693048 L62.82166,50.8483668 L62.1299381,50.8483668 Z M63.4923127,49.8407224 L63.6808273,49.8407224 L64.0581417,50.8483668 L63.8736508,50.8483668 L63.7772391,50.5754601 L63.3748633,50.5754601 L63.2784674,50.8483668 L63.1149824,50.8483668 L63.4923127,49.8407224 Z M63.3455406,45.8941271 L63.8276628,45.8941271 L63.8276628,48.833078 L63.3455406,48.833078 L63.3455406,45.8941271 Z M63.4252395,50.4411488 L63.731251,50.4411488 L63.5803284,50.0086393 L63.4252395,50.4411488 Z M64.4563987,49.8407224 L64.6450559,49.8407224 L65.0977603,50.562862 L65.0977603,49.8407224 L65.2737918,49.8407224 L65.2737918,50.8483668 L65.0852771,50.8483668 L64.6325727,50.1220067 L64.6325727,50.8483668 L64.456462,50.8483668 L64.4563987,49.8407224 Z M66.1918263,47.6826812 L67.1182569,48.8330145 L66.5314061,48.8330145 L65.6343299,47.7204121 L65.0223069,47.7204121 L65.0223069,48.8330145 L64.5402481,48.8330145 L64.5402481,45.8941429 L65.9110029,45.8941429 C66.1697043,45.8724588 66.4267044,45.9522369 66.6278179,46.1166571 C66.8153452,46.2954747 66.9175545,46.5460902 66.9086571,46.8052704 C66.9410431,47.2422516 66.6258806,47.6280133 66.1918105,47.6826971 L66.1918263,47.6826812 Z M65.8648722,47.300596 C65.9905408,47.3146085 66.1173063,47.2865686 66.2253946,47.2208501 C66.3470411,47.11811 66.4137315,46.9643129 66.4056558,46.8051435 C66.4137136,46.6471899 66.3469028,46.4946851 66.2253946,46.3936732 C66.1173063,46.3279548 65.9905408,46.2999148 65.8648722,46.3139273 L65.0181406,46.3139273 L65.0181406,47.3005167 L65.8648722,47.300596 Z M65.7977991,49.8407224 L66.1122066,49.8407224 C66.2615093,49.8223173 66.4114294,49.8697971 66.5230259,49.9708291 C66.7018812,50.18773 66.7018812,50.5012482 66.5230259,50.7181491 C66.4114294,50.8191811 66.2615093,50.8666608 66.1122066,50.8482557 L65.7977832,50.8482557 L65.7977991,49.8407224 Z M65.9864563,49.9960571 L65.9864563,50.693048 L66.1163571,50.693048 C66.2138695,50.7071947 66.312528,50.6763045 66.384634,50.6090499 C66.4908787,50.4487729 66.4908787,50.2403321 66.384634,50.0800552 C66.312528,50.0128006 66.2138695,49.9819104 66.1163571,49.9960571 L65.9864563,49.9960571 Z M67.453607,45.8941271 L67.93565,45.8941271 L67.93565,48.833078 L67.453607,48.833078 L67.453607,45.8941271 Z M69.1303575,47.5188737 L69.1303575,48.4131508 L70.765207,48.4131508 L70.765207,48.8330145 L68.6482986,48.8330145 L68.6482986,45.8941429 L70.7441377,45.8941429 L70.7441377,46.3140225 L69.1303416,46.3140225 L69.1303416,47.0990893 L70.6603992,47.0990893 L70.6603992,47.5189531 L69.1303575,47.5188737 Z" id="Shape" fill="#4B4B4B" fill-rule="nonzero"></path>
            </g>
        </g>
    </g>
</svg>