<?xml version="1.0" encoding="UTF-8"?>
<svg width="60px" height="62px" viewBox="0 0 60 62" version="1.1" xmlns="http://www.w3.org/2000/svg" xmlns:xlink="http://www.w3.org/1999/xlink">
    <title>Group 110</title>
    <g id="Page-1" stroke="none" stroke-width="1" fill="none" fill-rule="evenodd">
        <g id="Iconography" transform="translate(-502.000000, -1162.000000)">
            <g id="Group-110" transform="translate(502.000000, 1163.000000)">
                <rect id="Rectangle" fill-opacity="0" fill="#D8D8D8" x="0" y="0" width="60" height="60"></rect>
                <g id="Group-30" transform="translate(4.000000, 0.000000)">
                    <g id="Group-4" transform="translate(0.000000, 23.071600)" stroke="#4B4B4B" stroke-linecap="round" stroke-linejoin="round">
                        <polygon id="Stroke-1" points="0 36.9285 52.004 36.9285 52.004 12.7085 0 12.7085"></polygon>
                        <polyline id="Stroke-3" points="1.2156 12.709 1.2156 0 25.6036 8.291 51.0466 0.487 51.0466 12.709"></polyline>
                    </g>
                    <polyline id="Stroke-5" stroke="#4B4B4B" stroke-linecap="round" stroke-linejoin="round" points="3.8181 23.9564 3.8181 14.0194 2.4781 2.7664 49.4221 2.7664 48.4081 14.1214 48.3871 24.3744"></polyline>
                    <line x1="32.8269" y1="14.0902" x2="48.4079" y2="14.1212" id="Stroke-6" stroke="#4B4B4B" stroke-linecap="round" stroke-linejoin="round"></line>
                    <line x1="3.8181" y1="14.0199" x2="20.8191" y2="14.0539" id="Stroke-7" stroke="#4B4B4B" stroke-linecap="round" stroke-linejoin="round"></line>
                    <polyline id="Stroke-8" stroke="#4B4B4B" stroke-linecap="round" stroke-linejoin="round" points="2.4783 2.64 3.0033 0 48.4083 0 49.4213 2.64"></polyline>
                    <line x1="6.1091" y1="21.1127" x2="18.1171" y2="21.1127" id="Stroke-10" stroke="#4B4B4B"></line>
                    <g id="Group-29" transform="translate(6.102721, 11.671600)">
                        <path d="M0.289578947,12.8678 L0.0315789474,9.5288 C-0.00842105263,9.0978 -0.0104210526,8.6638 0.0255789474,8.2318 L0.0955789474,7.4048 L6.00457895,7.4048 L11.9145789,7.4048 L11.9835789,8.2318 C12.0005789,8.4288 12.0096415,8.6258 12.0096415,8.8228 C12.0105789,9.0588 11.9995789,9.2948 11.9775789,9.5288 L11.3245789,16.4988" id="Stroke-11" stroke="#4B4B4B"></path>
                        <line x1="14.7163789" y1="2.0163" x2="26.7243789" y2="2.0163" id="Stroke-13" stroke="#4B4B4B"></line>
                        <path d="M16.5698789,18.695 L14.7418789,2.031 C14.7018789,1.619 14.6998789,1.203 14.7358789,0.791 L14.8048789,0 L20.7148789,0 L26.6248789,0 L26.6938789,0.791 C26.7108789,0.978 26.7189469,1.167 26.7189469,1.356 C26.7198789,1.581 26.7098789,1.806 26.6868789,2.031 L25.6028789,13.094 L25.1278789,17.936" id="Stroke-15" stroke="#4B4B4B"></path>
                        <line x1="28.7710789" y1="9.4411" x2="40.7790789" y2="9.4411" id="Stroke-17" stroke="#4B4B4B"></line>
                        <path d="M29.4429789,16.4987 L28.7969789,9.4687 C28.7559789,9.0327 28.7549789,8.5947 28.7909789,8.1587 L28.8599789,7.3247 L34.7699789,7.3247 L40.6789789,7.3247 L40.7489789,8.1587 C40.7649789,8.3567 40.7739789,8.5567 40.7749789,8.7557 C40.7749789,8.9937 40.7649789,9.2307 40.7429789,9.4687 L40.4359789,12.9097" id="Stroke-19" stroke="#4B4B4B"></path>
                        <path d="M33.3337345,34.0047889 L33.3337345,35.2632333 L35.6375123,35.2632333 L35.6375123,35.8535667 L32.6547345,35.8535667 L32.6547345,31.7189 L35.6079567,31.7189 L35.6079567,32.3092333 L33.3337345,32.3092333 L33.3337345,33.4136778 L35.4897345,33.4136778 L35.4897345,34.0047889 L33.3337345,34.0047889 Z M30.9708456,35.8535667 L31.6506234,35.8535667 L31.6506234,31.7189 L30.9708456,31.7189 L30.9708456,35.8535667 Z M28.9035123,37.4900111 L28.9035123,38.4707889 L29.0862901,38.4707889 C29.3048456,38.4707889 29.3997345,38.4241222 29.4642901,38.3525667 C29.5412901,38.2646778 29.5770678,38.1285667 29.5770678,37.9800111 C29.5770678,37.8330111 29.5412901,37.6969 29.4642901,37.6082333 C29.3997345,37.5374556 29.3048456,37.4900111 29.0862901,37.4900111 L28.9035123,37.4900111 Z M28.6375123,37.2714556 L29.0808456,37.2714556 C29.3942901,37.2714556 29.5537345,37.3422333 29.6595123,37.4550111 C29.7839567,37.5849 29.8492901,37.7739 29.8492901,37.9800111 C29.8492901,38.1876778 29.7839567,38.3759 29.6595123,38.5057889 C29.5537345,38.6185667 29.3942901,38.6893444 29.0808456,38.6893444 L28.6375123,38.6893444 L28.6375123,37.2714556 Z M28.7324012,33.6975667 C29.0155123,33.6975667 29.1391789,33.6563444 29.2402901,33.5855667 C29.4051789,33.4619 29.4938456,33.2433444 29.4938456,33.0006778 C29.4938456,32.7580111 29.4051789,32.5456778 29.2402901,32.4220111 C29.1391789,32.3512333 29.0155123,32.3092333 28.7324012,32.3092333 L27.5392901,32.3092333 L27.5392901,33.6975667 L28.7324012,33.6975667 Z M29.1928456,34.2350111 L30.4979567,35.8535667 L29.6711789,35.8535667 L28.4072901,34.2886778 L27.5447345,34.2886778 L27.5447345,35.8535667 L26.8657345,35.8535667 L26.8657345,31.7189 L28.7969567,31.7189 C29.2877345,31.7189 29.5941789,31.8371222 29.8072901,32.0323444 C30.0670678,32.2687889 30.2031789,32.6110111 30.2031789,33.0006778 C30.2031789,33.6742333 29.8306234,34.1230111 29.1928456,34.2350111 L29.1928456,34.2350111 Z M26.7475123,37.2714556 L27.0135123,37.2714556 L27.6505123,38.2880111 L27.6505123,37.2714556 L27.8994012,37.2714556 L27.8994012,38.6893444 L27.6334012,38.6893444 L26.9956234,37.6673444 L26.9956234,38.6893444 L26.7475123,38.6893444 L26.7475123,37.2714556 Z M25.2938456,38.1161222 L25.7255123,38.1161222 L25.5124012,37.5079 L25.2938456,38.1161222 Z M25.1826234,35.8535667 L25.8616234,35.8535667 L25.8616234,31.7189 L25.1826234,31.7189 L25.1826234,35.8535667 Z M25.3887345,37.2714556 L25.6547345,37.2714556 L26.1867345,38.6893444 L25.9261789,38.6893444 L25.7908456,38.3051222 L25.2230678,38.3051222 L25.0869567,38.6893444 L24.8575123,38.6893444 L25.3887345,37.2714556 Z M23.4684012,38.6893444 L23.4684012,37.2714556 L23.7344012,37.2714556 L23.7344012,38.4707889 L24.4429567,38.4707889 L24.4429567,38.6893444 L23.4684012,38.6893444 Z M22.1866234,34.1704556 L23.4450678,34.1704556 L22.8189567,32.4282333 L22.1866234,34.1704556 Z M21.9626234,37.4900111 L21.9626234,37.9395667 L22.2815123,37.9395667 C22.4114012,37.9395667 22.4526234,37.9216778 22.4884012,37.8859 C22.5296234,37.8446778 22.5475123,37.7855667 22.5475123,37.7147889 C22.5475123,37.6440111 22.5296234,37.5849 22.4884012,37.5436778 C22.4526234,37.5079 22.4114012,37.4900111 22.2815123,37.4900111 L21.9626234,37.4900111 Z M22.7240678,37.4192333 C22.7839567,37.4962333 22.8189567,37.6027889 22.8189567,37.7147889 C22.8189567,37.9333444 22.6890678,38.0865667 22.4642901,38.1285667 L22.9076234,38.6893444 L22.6120678,38.6893444 L22.1928456,38.1581222 L21.9626234,38.1581222 L21.9626234,38.6893444 L21.6966234,38.6893444 L21.6966234,37.2714556 L22.2877345,37.2714556 C22.5412901,37.2714556 22.6478456,37.3251222 22.7240678,37.4192333 L22.7240678,37.4192333 Z M21.0051789,37.4900111 L20.2499567,37.4900111 L20.2499567,37.8501222 L20.9289567,37.8501222 L20.9289567,38.0694556 L20.2499567,38.0694556 L20.2499567,38.4707889 L21.0176234,38.4707889 L21.0176234,38.6893444 L19.9839567,38.6893444 L19.9839567,37.2714556 L21.0051789,37.2714556 L21.0051789,37.4900111 Z M19.4045123,33.6975667 C19.6884012,33.6975667 19.8120678,33.6563444 19.9124012,33.5855667 C20.0780678,33.4619 20.1667345,33.2433444 20.1667345,33.0006778 C20.1667345,32.7580111 20.0780678,32.5456778 19.9124012,32.4220111 C19.8120678,32.3512333 19.6884012,32.3092333 19.4045123,32.3092333 L18.2114012,32.3092333 L18.2114012,33.6975667 L19.4045123,33.6975667 Z M18.1826234,38.6893444 L18.1826234,38.5003444 L18.9790678,37.4900111 L18.2409567,37.4900111 L18.2409567,37.2714556 L19.3041789,37.2714556 L19.3041789,37.4604556 L18.4952901,38.4707889 L19.3337345,38.4707889 L19.3337345,38.6893444 L18.1826234,38.6893444 Z M23.6465123,34.7320111 L21.9859567,34.7320111 L21.5784012,35.8535667 L20.3440678,35.8535667 L19.0801789,34.2886778 L18.2168456,34.2886778 L18.2168456,35.8535667 L17.5378456,35.8535667 L17.5378456,31.7189 L19.4698456,31.7189 C19.9598456,31.7189 20.2670678,31.8371222 20.4801789,32.0323444 C20.7399567,32.2687889 20.8752901,32.6110111 20.8752901,33.0006778 C20.8752901,33.6742333 20.5035123,34.1230111 19.8657345,34.2350111 L20.9935123,35.6357889 L22.4526234,31.7189 L23.2265123,31.7189 L24.7680678,35.8535667 L24.0532901,35.8535667 L23.6465123,34.7320111 Z M17.7089567,37.4900111 L17.2664012,37.4900111 L17.2664012,38.6893444 L17.0004012,38.6893444 L17.0004012,37.4900111 L16.5578456,37.4900111 L16.5578456,37.2714556 L17.7089567,37.2714556 L17.7089567,37.4900111 Z M15.7007345,38.6893444 L15.9667345,38.6893444 L15.9667345,37.2714556 L15.7007345,37.2714556 L15.7007345,38.6893444 Z M14.3419567,33.6975667 L15.3818456,33.6975667 C15.6649567,33.6975667 15.7894012,33.6563444 15.8897345,33.5855667 C16.0554012,33.4619 16.1432901,33.2433444 16.1432901,33.0006778 C16.1432901,32.7580111 16.0554012,32.5456778 15.8897345,32.4220111 C15.7894012,32.3512333 15.6649567,32.3092333 15.3818456,32.3092333 L14.3419567,32.3092333 L14.3419567,33.6975667 Z M14.3419567,34.2886778 L14.3419567,35.8535667 L13.6629567,35.8535667 L13.6629567,31.7189 L15.4471789,31.7189 C15.9371789,31.7189 16.2444012,31.8371222 16.4575123,32.0323444 C16.7172901,32.2687889 16.8534012,32.6110111 16.8534012,33.0006778 C16.8534012,33.3903444 16.7172901,33.7387889 16.4575123,33.9752333 C16.2444012,34.1704556 15.9371789,34.2886778 15.4471789,34.2886778 L14.3419567,34.2886778 Z M14.1708456,37.5732333 L13.8994012,38.6893444 L13.6334012,38.6893444 L13.2499567,37.2714556 L13.4972901,37.2714556 L13.7866234,38.3409 L14.0471789,37.2714556 L14.3124012,37.2714556 L14.5846234,38.3292333 L14.8739567,37.2714556 L15.1096234,37.2714556 L14.7261789,38.6893444 L14.4601789,38.6893444 L14.1708456,37.5732333 Z M12.1089567,38.0632333 C11.8849567,38.0041222 11.6547345,37.9154556 11.6547345,37.6377889 C11.6547345,37.3780111 11.8849567,37.2419 12.2162901,37.2419 C12.5165123,37.2419 12.7467345,37.3904556 12.7467345,37.6844556 L12.4931789,37.6844556 C12.4869567,37.5312333 12.3757345,37.4604556 12.2162901,37.4604556 C11.9852901,37.4604556 11.9207345,37.5499 11.9207345,37.6377889 C11.9207345,37.7855667 12.1151789,37.8151222 12.3220678,37.8687889 C12.5460678,37.9271222 12.7762901,38.0157889 12.7762901,38.2942333 C12.7762901,38.6006778 12.5110678,38.7189 12.2450678,38.7189 C11.8554012,38.7189 11.6314012,38.5711222 11.6251789,38.2226778 L11.8787345,38.2226778 C11.8787345,38.4350111 12.0265123,38.5003444 12.2450678,38.5003444 C12.4402901,38.5003444 12.5110678,38.4000111 12.5110678,38.2942333 C12.5110678,38.1456778 12.3166234,38.1161222 12.1089567,38.0632333 L12.1089567,38.0632333 Z M9.14329006,34.1704556 L10.3729567,34.1704556 L9.7577345,32.5223444 L9.14329006,34.1704556 Z M6.24917895,35.2632333 L8.07462339,35.2632333 L9.39840117,31.7189 L10.1722901,31.7189 L11.7130678,35.8535667 L10.9982901,35.8535667 L10.5790678,34.7320111 L8.93717895,34.7320111 L8.52417895,35.8535667 L5.57017895,35.8535667 L5.57017895,31.7189 L6.24917895,31.7189 L6.24917895,35.2632333 Z" id="Fill-21" fill="#4B4B4B"></path>
                        <path d="M20.0200789,5.2653 L20.5590789,5.2653 L20.5590789,4.2783 L20.8120789,4.2783 L20.8120789,5.5563 L19.0400789,5.5563 L19.0400789,4.2903 L19.2930789,4.2903 L19.2930789,5.2653 L19.7660789,5.2653 L19.7660789,4.3413 L20.0200789,4.3413 L20.0200789,5.2653 Z M19.0400789,6.2783 L20.8120789,6.2783 L20.8120789,5.9873 L19.0400789,5.9873 L19.0400789,6.2783 Z M21.5130789,7.1633 L21.9340789,7.1633 L21.9340789,7.0853 C21.9340789,6.9923 21.9140789,6.9513 21.8830789,6.9233 C21.8450789,6.8903 21.7870789,6.8753 21.7230789,6.8753 C21.6610789,6.8753 21.6020789,6.8903 21.5640789,6.9233 C21.5340789,6.9513 21.5130789,6.9923 21.5130789,7.0853 L21.5130789,7.1633 Z M21.4190789,7.2783 L21.4190789,7.0873 C21.4190789,6.9533 21.4500789,6.8853 21.4990789,6.8393 C21.5540789,6.7863 21.6350789,6.7583 21.7230789,6.7583 C21.8120789,6.7583 21.8930789,6.7863 21.9490789,6.8393 C21.9970789,6.8853 22.0280789,6.9533 22.0280789,7.0873 L22.0280789,7.2783 L21.4190789,7.2783 Z M19.8880789,7.2373 C19.8880789,7.1163 19.8710789,7.0623 19.8400789,7.0193 C19.7870789,6.9493 19.6930789,6.9113 19.5890789,6.9113 C19.4860789,6.9113 19.3940789,6.9493 19.3410789,7.0193 C19.3110789,7.0623 19.2930789,7.1163 19.2930789,7.2373 L19.2930789,7.7483 L19.8880789,7.7483 L19.8880789,7.2373 Z M20.1190789,7.0393 L20.8120789,6.4803 L20.8120789,6.8343 L20.1410789,7.3763 L20.1410789,7.7453 L20.8120789,7.7453 L20.8120789,8.0373 L19.0400789,8.0373 L19.0400789,7.2093 C19.0400789,6.9993 19.0900789,6.8683 19.1740789,6.7773 C19.2760789,6.6643 19.4220789,6.6073 19.5890789,6.6073 C19.8780789,6.6073 20.0710789,6.7663 20.1190789,7.0393 L20.1190789,7.0393 Z M21.4190789,8.0873 L21.4190789,7.9743 L21.8550789,7.7013 L21.4190789,7.7013 L21.4190789,7.5943 L22.0280789,7.5943 L22.0280789,7.7083 L21.5890789,7.9823 L22.0280789,7.9823 L22.0280789,8.0873 L21.4190789,8.0873 Z M21.7820789,8.7103 L21.7820789,8.5263 L21.5210789,8.6173 L21.7820789,8.7103 Z M19.0400789,8.7583 L20.8120789,8.7583 L20.8120789,8.4673 L19.0400789,8.4673 L19.0400789,8.7583 Z M21.4190789,8.6703 L21.4190789,8.5563 L22.0280789,8.3283 L22.0280789,8.4403 L21.8630789,8.4973 L21.8630789,8.7413 L22.0280789,8.7993 L22.0280789,8.8983 L21.4190789,8.6703 Z M22.0280789,9.4933 L21.4190789,9.4933 L21.4190789,9.3793 L21.9340789,9.3793 L21.9340789,9.0753 L22.0280789,9.0753 L22.0280789,9.4933 Z M20.0900789,10.0423 L20.0900789,9.5033 L19.3440789,9.7713 L20.0900789,10.0423 Z M21.5130789,10.1383 L21.7060789,10.1383 L21.7060789,10.0013 C21.7060789,9.9463 21.6990789,9.9283 21.6830789,9.9133 C21.6660789,9.8953 21.6400789,9.8883 21.6100789,9.8883 C21.5800789,9.8883 21.5540789,9.8953 21.5370789,9.9133 C21.5210789,9.9283 21.5130789,9.9463 21.5130789,10.0013 L21.5130789,10.1383 Z M21.4830789,9.8123 C21.5160789,9.7863 21.5620789,9.7713 21.6100789,9.7713 C21.7040789,9.7713 21.7690789,9.8273 21.7870789,9.9233 L22.0280789,9.7333 L22.0280789,9.8603 L21.7990789,10.0393 L21.7990789,10.1383 L22.0280789,10.1383 L22.0280789,10.2523 L21.4190789,10.2523 L21.4190789,9.9993 C21.4190789,9.8903 21.4430789,9.8453 21.4830789,9.8123 L21.4830789,9.8123 Z M21.5130789,10.5483 L21.5130789,10.8723 L21.6670789,10.8723 L21.6670789,10.5813 L21.7610789,10.5813 L21.7610789,10.8723 L21.9340789,10.8723 L21.9340789,10.5433 L22.0280789,10.5433 L22.0280789,10.9873 L21.4190789,10.9873 L21.4190789,10.5483 L21.5130789,10.5483 Z M19.8880789,11.2353 C19.8880789,11.1133 19.8710789,11.0603 19.8400789,11.0173 C19.7870789,10.9463 19.6930789,10.9083 19.5890789,10.9083 C19.4860789,10.9083 19.3940789,10.9463 19.3410789,11.0173 C19.3110789,11.0603 19.2930789,11.1133 19.2930789,11.2353 L19.2930789,11.7453 L19.8880789,11.7453 L19.8880789,11.2353 Z M22.0280789,11.7583 L21.9470789,11.7583 L21.5130789,11.4163 L21.5130789,11.7343 L21.4190789,11.7343 L21.4190789,11.2783 L21.5000789,11.2783 L21.9340789,11.6243 L21.9340789,11.2653 L22.0280789,11.2653 L22.0280789,11.7583 Z M20.3320789,9.4163 L20.3320789,10.1283 L20.8120789,10.3033 L20.8120789,10.8323 L20.1410789,11.3733 L20.1410789,11.7443 L20.8120789,11.7443 L20.8120789,12.0353 L19.0400789,12.0353 L19.0400789,11.2063 C19.0400789,10.9963 19.0900789,10.8653 19.1740789,10.7743 C19.2760789,10.6623 19.4220789,10.6043 19.5890789,10.6043 C19.8780789,10.6043 20.0710789,10.7643 20.1190789,11.0373 L20.7180789,10.5533 L19.0400789,9.9283 L19.0400789,9.5973 L20.8120789,8.9363 L20.8120789,9.2433 L20.3320789,9.4163 Z M21.5130789,11.9613 L21.5130789,12.1513 L22.0280789,12.1513 L22.0280789,12.2653 L21.5130789,12.2653 L21.5130789,12.4543 L21.4190789,12.4543 L21.4190789,11.9613 L21.5130789,11.9613 Z M21.4190789,12.8213 L22.0270789,12.8213 L22.0270789,12.7083 L21.4190789,12.7083 L21.4190789,12.8213 Z M19.8880789,13.4053 L19.8880789,12.9583 C19.8880789,12.8373 19.8710789,12.7843 19.8400789,12.7413 C19.7870789,12.6703 19.6930789,12.6323 19.5890789,12.6323 C19.4860789,12.6323 19.3940789,12.6703 19.3410789,12.7413 C19.3110789,12.7843 19.2930789,12.8373 19.2930789,12.9583 L19.2930789,13.4053 L19.8880789,13.4053 Z M20.1410789,13.4053 L20.8120789,13.4053 L20.8120789,13.6963 L19.0400789,13.6963 L19.0400789,12.9313 C19.0400789,12.7213 19.0900789,12.5893 19.1740789,12.4973 C19.2760789,12.3863 19.4220789,12.3283 19.5890789,12.3283 C19.7560789,12.3283 19.9060789,12.3863 20.0070789,12.4973 C20.0900789,12.5893 20.1410789,12.7213 20.1410789,12.9313 L20.1410789,13.4053 Z M21.5490789,13.4783 L22.0280789,13.5943 L22.0280789,13.7083 L21.4190789,13.8723 L21.4190789,13.7663 L21.8780789,13.6423 L21.4190789,13.5313 L21.4190789,13.4163 L21.8730789,13.3003 L21.4190789,13.1763 L21.4190789,13.0753 L22.0280789,13.2403 L22.0280789,13.3543 L21.5490789,13.4783 Z M21.7590789,14.3613 C21.7340789,14.4573 21.6960789,14.5563 21.5770789,14.5563 C21.4650789,14.5563 21.4070789,14.4573 21.4070789,14.3163 C21.4070789,14.1873 21.4700789,14.0873 21.5970789,14.0873 L21.5970789,14.1973 C21.5310789,14.2003 21.5000789,14.2473 21.5000789,14.3163 C21.5000789,14.4143 21.5390789,14.4423 21.5770789,14.4423 C21.6400789,14.4423 21.6530789,14.3593 21.6750789,14.2703 C21.7010789,14.1743 21.7390789,14.0763 21.8580789,14.0763 C21.9900789,14.0763 22.0400789,14.1893 22.0400789,14.3033 C22.0400789,14.4703 21.9770789,14.5663 21.8280789,14.5693 L21.8280789,14.4603 C21.9180789,14.4603 21.9470789,14.3973 21.9470789,14.3033 C21.9470789,14.2193 21.9040789,14.1893 21.8580789,14.1893 C21.7940789,14.1893 21.7820789,14.2733 21.7590789,14.3613 L21.7590789,14.3613 Z M20.0900789,15.6323 L20.0900789,15.1063 L19.3840789,15.3693 L20.0900789,15.6323 Z M20.5590789,16.8723 L20.5590789,16.0903 L19.0400789,15.5233 L19.0400789,15.1923 L20.8120789,14.5313 L20.8120789,14.8373 L20.3320789,15.0173 L20.3320789,15.7213 L20.8120789,15.8983 L20.8120789,17.1633 L19.0400789,17.1633 L19.0400789,16.8723 L20.5590789,16.8723 Z" id="Fill-23" fill="#4B4B4B"></path>
                        <path d="M34.9360789,12.8542 L35.4750789,12.8542 L35.4750789,11.8672 L35.7280789,11.8672 L35.7280789,13.1452 L33.9560789,13.1452 L33.9560789,11.8792 L34.2090789,11.8792 L34.2090789,12.8542 L34.6820789,12.8542 L34.6820789,11.9302 L34.9360789,11.9302 L34.9360789,12.8542 Z M33.9560789,13.8672 L35.7280789,13.8672 L35.7280789,13.5762 L33.9560789,13.5762 L33.9560789,13.8672 Z M34.8040789,14.8262 C34.8040789,14.7052 34.7870789,14.6512 34.7560789,14.6082 C34.7030789,14.5382 34.6090789,14.5002 34.5050789,14.5002 C34.4020789,14.5002 34.3100789,14.5382 34.2570789,14.6082 C34.2270789,14.6512 34.2090789,14.7052 34.2090789,14.8262 L34.8040789,14.8262 Z M33.9560789,14.7982 C33.9560789,14.5882 34.0060789,14.4572 34.0900789,14.3662 C34.1920789,14.2532 34.3380789,14.1962 34.5050789,14.1962 C34.7940789,14.1962 34.9870789,14.3552 35.0350789,14.6282 L35.7280789,14.0692 L35.7280789,14.4232 L33.9560789,14.7982 Z" id="Fill-25" fill="#4B4B4B"></path>
                        <path d="M5.71537895,12.8903 L6.25437895,12.8903 L6.25437895,11.9033 L6.50837895,11.9033 L6.50837895,13.1813 L4.73637895,13.1813 L4.73637895,11.9153 L4.98837895,11.9153 L4.98837895,12.8903 L5.46237895,12.8903 L5.46237895,11.9663 L5.71537895,11.9663 L5.71537895,12.8903 Z M4.73637895,13.9033 L6.50837895,13.9033 L6.50837895,13.6123 L4.73637895,13.6123 L4.73637895,13.9033 Z M7.20937895,14.7893 L7.62937895,14.7893 L7.62937895,14.7103 C7.62937895,14.6173 7.60937895,14.5773 7.57837895,14.5483 C7.54037895,14.5163 7.48337895,14.5003 7.41937895,14.5003 C7.35637895,14.5003 7.29737895,14.5163 7.26037895,14.5483 C7.22937895,14.5773 7.20937895,14.6173 7.20937895,14.7103 L7.20937895,14.7893 Z M7.11537895,14.9033 L7.11537895,14.7133 C7.11537895,14.5793 7.14637895,14.5113 7.19437895,14.4653 C7.24937895,14.4113 7.33037895,14.3843 7.41937895,14.3843 C7.50837895,14.3843 7.58937895,14.4113 7.64537895,14.4653 C7.69337895,14.5113 7.72337895,14.5793 7.72337895,14.7133 L7.72337895,14.9033 L7.11537895,14.9033 Z M5.58337895,14.8633 C5.58337895,14.7413 5.56637895,14.6883 5.53537895,14.6453 C5.48337895,14.5743 5.38937895,14.5363 5.28537895,14.5363 C5.18137895,14.5363 5.09037895,14.5743 5.03637895,14.6453 C5.00637895,14.6883 4.98837895,14.7413 4.98837895,14.8633 L5.58337895,14.8633 Z M4.73637895,14.8343 C4.73637895,14.6243 4.78637895,14.4933 4.86937895,14.4023 C4.97137895,14.2903 5.11737895,14.2323 5.28537895,14.2323 C5.57337895,14.2323 5.76637895,14.3923 5.81437895,14.6653 L6.50837895,14.1063 L6.50837895,14.4603 L5.83737895,15.0013 L4.73637895,14.8343 Z M7.55137895,15.3263 L7.11537895,15.3263 L7.11537895,15.2193 L7.72337895,15.2193 L7.72337895,15.3333 L7.55137895,15.3263 Z" id="Fill-27" fill="#4B4B4B"></path>
                    </g>
                </g>
            </g>
        </g>
    </g>
</svg>