<?xml version="1.0" encoding="UTF-8"?>
<svg width="120px" height="120px" viewBox="0 0 120 120" version="1.1" xmlns="http://www.w3.org/2000/svg" xmlns:xlink="http://www.w3.org/1999/xlink">
    <title>Consultation</title>
    <g id="Page-1" stroke="none" stroke-width="1" fill="none" fill-rule="evenodd">
        <g id="Iconography" transform="translate(-1443.000000, -735.000000)">
            <g id="Consultation" transform="translate(1443.000000, 735.000000)">
                <rect id="Rectangle" x="0" y="0" width="120" height="120"></rect>
                <path d="M45.1755399,105.32861 C45.0429082,105.328687 44.9156865,105.276033 44.8219016,105.182248 C44.7281167,105.088464 44.675463,104.961242 44.6755399,104.82861 L44.6755399,101.48682 C44.6755399,101.210678 44.8993976,100.98682 45.1755399,100.98682 C45.4516824,100.98682 45.6755399,101.210678 45.6755399,101.48682 L45.6755399,104.82861 C45.675617,104.961242 45.6229633,105.088464 45.5291784,105.182248 C45.4353935,105.276033 45.3081718,105.328687 45.1755399,105.32861 Z" id="Path" fill="#4B4B4B" fill-rule="nonzero"></path>
                <path d="M69.43091,77.93506 C68.790698,77.5384876 68.1209135,77.191777 67.42749,76.898 L51.98849,70.34819 C52.11739,66.28765 54.54024,60.26519 54.56515,60.20269 C54.6033388,60.10235 54.6074329,59.9922286 54.5768,59.88933 C60.25983,55.964 64.257,48.92859 64.92,40.73993 C65.0362487,40.5838698 65.0509806,40.3744053 64.95772,40.20361 L64.95455,40.19843 C64.99337,39.5788 65.01974,38.95508 65.01974,38.32373 C65.01974,24.59619 55.6755,13.42822 44.19015,13.42822 C32.7048,13.42822 23.3606,24.59619 23.3606,38.32373 C23.3606,48.4621 28.46008,57.1983 35.75195,61.07673 C35.7519029,61.1385197 35.7634142,61.199773 35.78589,61.25733 C35.81079,61.31983 38.23315,67.34233 38.36206,71.40187 L22.92306,77.95167 C17.3224122,80.3509978 13.7799697,85.9540509 14.01436,92.04249 L14.93036,104.33839 C14.9497703,104.599195 15.1668839,104.80128 15.42841,104.80128 C15.44061,104.80128 15.45331,104.80128 15.466,104.80028 C15.7414407,104.779597 15.9479991,104.539599 15.92743,104.26415 L15.01243,91.98485 C14.8000574,86.3172871 18.1001203,81.1042718 23.3137,78.87157 L37.7772,72.73657 L33.49144,80.92627 C33.4162954,81.0694398 33.4152033,81.2401505 33.48851,81.38427 L44.72972,103.51317 C44.8553837,103.758355 45.1556915,103.85571 45.4013056,103.730886 C45.6469198,103.606063 45.7453019,103.30609 45.62132,103.06005 L45.499,102.81933 C45.5477309,102.783696 45.5892415,102.739121 45.62132,102.68798 L56.86206,80.55908 C56.9353617,80.4149593 56.9342696,80.244251 56.85913,80.10108 L52.41907,71.61738 L67.03687,77.81788 C67.6832139,78.0919546 68.3075994,78.4151679 68.90454,78.78468 C69.0563373,78.8796131 69.2473223,78.8860858 69.4051987,78.8016478 C69.5630751,78.7172099 69.6637168,78.5547648 69.6692472,78.3758052 C69.6743363,78.1968457 69.5835026,78.0287195 69.43091,77.93507 L69.43091,77.93506 Z M24.3606,38.32373 C24.3606,25.14795 33.2561,14.42822 44.19019,14.42822 C55.12428,14.42822 64.01978,25.148 64.01978,38.32373 C64.01978,38.61267 64.01007,38.89886 64.00159,39.18536 C62.58325,38.03613 59.26349,36.29907 51.98511,36.05615 C41.70044,35.71338 32.26001,26.56787 32.16577,26.47607 C32.0384868,26.3506669 31.8539235,26.3027838 31.6817288,26.3504903 C31.509534,26.3981969 31.3759246,26.5342297 31.3313207,26.7072541 C31.2867168,26.8802785 31.3379094,27.0639513 31.46558,27.18896 C31.86108,27.57764 41.27319,36.69971 51.9519,37.05615 C60.62561,37.34509 63.33405,39.79715 63.93408,40.49634 C63.01965,52.65723 54.51617,62.21924 44.19019,62.21924 C33.2561,62.21924 24.3606,51.49951 24.3606,38.32373 Z M51.04028,71.13818 L55.85376,80.33643 L44.96594,101.7699 L34.49683,81.16064 L39.227,72.12158 L39.36744,72.06201 L39.36744,71.731 C39.36744,68.32438 37.73457,63.59007 37.02918,61.703 C39.2848497,62.7006396 41.7237401,63.21704 44.19018,63.21924 C47.3965444,63.2093048 50.5418879,62.3418832 53.3001,60.70691 C52.58379,62.62991 50.9831,67.30291 50.9831,70.67725 L50.9831,71.0083 L51.0051,71.01764 C51.0114978,71.0591871 51.0233257,71.0997138 51.04028,71.13818 L51.04028,71.13818 Z" id="Shape" fill="#4B4B4B" fill-rule="nonzero"></path>
                <path d="M32.8762199,17.0385701 C33.0088518,17.0385701 33.1360735,16.9859933 33.2298584,16.8922084 C33.3236433,16.7984235 33.376297,16.6712018 33.3762199,16.53857 C33.3762199,11.55029 38.22729,7.49268 44.19022,7.49268 C50.15315,7.49268 55.00422,11.55029 55.00422,16.53857 C55.00422,16.8147124 55.2280776,17.0385701 55.50422,17.0385701 C55.7803624,17.0385701 56.00422,16.8147124 56.00422,16.53857 C56.00422,10.99951 50.70442,6.49268 44.19022,6.49268 C37.67602,6.49268 32.3762199,10.99951 32.3762199,16.53857 C32.3762199,16.6712018 32.4287967,16.7984235 32.5225816,16.8922084 C32.6163665,16.9859933 32.7435882,17.0385701 32.8762199,17.0385701 Z" id="Path" fill="#4B4B4B" fill-rule="nonzero"></path>
                <path d="M87.87134,106.70264 C86.214779,106.70264 84.7213315,105.704759 84.0873902,104.174297 C83.453449,102.643836 83.8038581,100.882196 84.9752221,99.7108292 C86.1465862,98.5394623 87.9082249,98.1890489 89.4386881,98.8229864 C90.9691512,99.4569239 91.96704,100.950369 91.96704,102.60693 C91.9648295,104.868008 90.132418,106.700424 87.87134,106.70264 Z M87.87134,99.51123 C86.6192404,99.51123 85.4904285,100.26547 85.0112688,101.422258 C84.5321092,102.579047 84.7969643,103.910569 85.6823325,104.795938 C86.5677006,105.681306 87.8992231,105.946161 89.0560115,105.467001 C90.2128,104.987842 90.96704,103.85903 90.96704,102.60693 C90.9652212,100.897976 89.5802939,99.5130488 87.87134,99.51123 L87.87134,99.51123 Z" id="Shape" fill="#4B4B4B" fill-rule="nonzero"></path>
                <path d="M101.28,113.50732 L74.46265,113.50732 C71.858432,113.504289 69.7481263,111.393768 69.74536,108.78955 L69.74536,48.27881 C69.7481043,45.674576 71.8584164,43.5640314 74.46265,43.561 L101.28,43.561 C103.884383,43.5638218 105.994948,45.6743873 105.99777,48.27877 L105.99777,108.78951 C105.99497,111.393908 103.884398,113.504498 101.28,113.50732 Z M74.46265,44.561 C72.4104905,44.5634856 70.7475806,46.2266102 70.74536,48.27877 L70.74536,108.78951 C70.7475806,110.84167 72.4104905,112.504794 74.46265,112.50728 L101.28,112.50728 C103.332253,112.504833 104.995323,110.841763 104.99777,108.78951 L104.99777,48.27881 C104.995345,46.226541 103.332269,44.5634466 101.28,44.561 L74.46265,44.561 Z" id="Shape" fill="#4B4B4B" fill-rule="nonzero"></path>
                <path d="M91.66675,50.856 L81.84985,50.856 C81.5737076,50.856 81.34985,50.6321424 81.34985,50.356 C81.34985,50.0798576 81.5737076,49.856 81.84985,49.856 L91.66675,49.856 C91.9428924,49.856 92.16675,50.0798576 92.16675,50.356 C92.16675,50.6321424 91.9428924,50.856 91.66675,50.856 Z" id="Path" fill="#4B4B4B" fill-rule="nonzero"></path>
                <circle id="Oval" fill="#4B4B4B" fill-rule="nonzero" cx="94.6944" cy="50.35616" r="1.00407"></circle>
                <path d="M76.80141,79.21172 L78.22193,79.21172 L79.2517,76.45344 L79.854,76.45344 L81.05386,79.67144 L80.49759,79.67144 L80.1712,78.79798 L78.89313,78.79798 L78.57137,79.67144 L76.27276,79.67144 L76.27276,76.45344 L76.80141,76.45344 L76.80141,79.21172 Z M79.05401,78.36123 L80.01022,78.36123 L79.53215,77.07862 L79.05401,78.36123 Z M81.36183,81.39084 C81.1871,81.34484 81.00783,81.2759 81.00783,81.05984 C81.00783,80.85758 81.18711,80.75184 81.44459,80.75184 C81.67903,80.75184 81.85831,80.86678 81.85831,81.09665 L81.6607,81.09665 C81.65606,80.97707 81.5687,80.92192 81.44459,80.92192 C81.26531,80.92192 81.21473,80.99092 81.21473,81.05983 C81.21473,81.17477 81.36648,81.19774 81.52735,81.23912 C81.702,81.28512 81.88129,81.35405 81.88129,81.57012 C81.88129,81.80912 81.67446,81.90112 81.46757,81.90112 C81.16414,81.90112 80.9895,81.78619 80.98486,81.51494 L81.18255,81.51494 C81.18255,81.68046 81.29748,81.73104 81.46755,81.73104 C81.6193,81.73104 81.67444,81.65292 81.67444,81.57016 C81.67445,81.45519 81.5227,81.43222 81.36183,81.39084 L81.36183,81.39084 Z M82.96627,81.00922 L82.75481,81.87811 L82.54791,81.87811 L82.24913,80.77478 L82.44213,80.77478 L82.66736,81.60686 L82.86969,80.77478 L83.07651,80.77478 L83.28798,81.59766 L83.51328,80.77478 L83.69713,80.77478 L83.39835,81.87811 L83.19145,81.87811 L82.96627,81.00922 Z M83.09954,78.45322 L83.09954,79.67148 L82.57088,79.67148 L82.57088,76.45348 L83.95923,76.45348 C84.2429486,76.4297186 84.5248064,76.5170728 84.74536,76.69712 C84.9510257,76.8929132 85.0631208,77.1673277 85.05336,77.45112 C85.0631008,77.736232 84.951112,78.0120297 84.74536,78.20964 C84.5247882,78.3896533 84.2429445,78.4770033 83.95923,78.45328 L83.09954,78.45322 Z M83.09954,77.99348 L83.90864,77.99348 C84.0464631,78.0088349 84.1854924,77.978131 84.30403,77.90616 C84.437413,77.7936798 84.5105486,77.6253152 84.50172,77.45106 C84.5105535,77.2781091 84.4372836,77.1111253 84.30403,77.00052 C84.1854924,76.928549 84.0464631,76.8978451 83.90864,76.9132 L83.09954,76.9132 L83.09954,77.99348 Z M84.15692,80.7748 L84.36382,80.7748 L84.36382,81.87813 L84.15692,81.87813 L84.15692,80.7748 Z M85.71998,80.94489 L85.37518,80.94489 L85.37518,81.87813 L85.16828,81.87813 L85.16828,80.94489 L84.82348,80.94489 L84.82348,80.7748 L85.72,80.7748 L85.71998,80.94489 Z M90.34019,78.798 L89.04837,78.798 L88.7311,79.67146 L87.77032,79.67146 L86.78649,78.4532 L86.11529,78.4532 L86.11529,79.67146 L85.58664,79.67146 L85.58664,76.45346 L87.08992,76.45346 C87.3736374,76.4297102 87.6554909,76.5170632 87.87605,76.6971 C88.0817157,76.8928932 88.1938108,77.1673077 88.18405,77.4511 C88.2195885,77.9295538 87.8740044,78.3519521 87.39799,78.41188 L88.27599,79.50144 L89.4115,76.4535 L90.0137,76.4535 L91.21363,79.6715 L90.65737,79.6715 L90.34019,78.798 Z M86.08776,81.87811 L86.08776,81.731 L86.70837,80.94487 L86.1337,80.94487 L86.1337,80.77478 L86.96122,80.77478 L86.96122,80.92189 L86.3314,81.70803 L86.98419,81.70803 L86.98419,81.87811 L86.08776,81.87811 Z M87.03934,77.99346 C87.1771599,78.0088134 87.3161855,77.9781095 87.43472,77.90614 C87.5681067,77.7936618 87.6412461,77.6252969 87.63242,77.45104 C87.6412511,77.2780874 87.5679773,77.1111033 87.43472,77.0005 C87.3161855,76.9285305 87.1771599,76.8978266 87.03934,76.91318 L86.11073,76.91318 L86.11073,77.99346 L87.03934,77.99346 Z M88.28521,80.94487 L87.69677,80.94487 L87.69677,81.22532 L88.22542,81.22532 L88.22542,81.3954 L87.69677,81.3954 L87.69677,81.708 L88.29441,81.708 L88.29441,81.87808 L87.48987,81.87808 L87.48987,80.77478 L88.28521,80.77478 L88.28521,80.94487 Z M89.62297,80.88972 C89.671744,80.956351 89.6975557,81.0370217 89.69652,81.11959 C89.7032799,81.2826064 89.582844,81.4231025 89.42071,81.44134 L89.76551,81.87811 L89.53564,81.87811 L89.20925,81.46439 L89.03,81.46439 L89.03,81.87811 L88.8231,81.87811 L88.8231,80.77478 L89.28284,80.77478 C89.4805,80.77478 89.56325,80.81616 89.623,80.88972 L89.62297,80.88972 Z M89.02997,80.94487 L89.02997,81.29423 L89.27817,81.29423 C89.37934,81.29423 89.41152,81.28047 89.43917,81.25285 C89.5004242,81.1745387 89.5004242,81.0645613 89.43917,80.98625 C89.41156,80.95863 89.37938,80.94487 89.27817,80.94487 L89.02997,80.94487 Z M89.20462,78.36123 L90.18388,78.36123 L89.69653,77.00507 L89.20462,78.36123 Z M90.20221,81.87811 L90.20221,80.77478 L90.40911,80.77478 L90.40911,81.708 L90.96081,81.708 L90.96081,81.87808 L90.20221,81.87811 Z M91.69636,80.77478 L91.90318,80.77478 L92.31698,81.87811 L92.11465,81.87811 L92.00892,81.57933 L91.56758,81.57933 L91.46185,81.87811 L91.28257,81.87811 L91.69636,80.77478 Z M91.53541,76.45344 L92.06414,76.45344 L92.06414,79.67144 L91.5354,79.67144 L91.53541,76.45344 Z M91.62281,81.43222 L91.95841,81.43222 L91.79289,80.95863 L91.62281,81.43222 Z M92.75367,80.77478 L92.96057,80.77478 L93.45704,81.56548 L93.45704,80.77478 L93.6501,80.77478 L93.6501,81.87811 L93.44328,81.87811 L92.9468,81.08277 L92.9468,81.87811 L92.75367,81.87811 L92.75367,80.77478 Z M94.6569,78.41178 L95.6729,79.67142 L95.0293,79.67142 L94.04548,78.45316 L93.37428,78.45316 L93.37428,79.67142 L92.84562,79.67142 L92.84562,76.45342 L94.3489,76.45342 C94.6326175,76.4296692 94.9144714,76.5170223 95.13503,76.69706 C95.3406957,76.8928532 95.4527908,77.1672677 95.44303,77.45106 C95.4785541,77.9295337 95.1329282,78.3519311 94.65689,78.41182 L94.6569,78.41178 Z M94.29833,77.99342 C94.4361494,78.0087643 94.5751721,77.978061 94.69371,77.9061 C94.8271006,77.7936246 94.9002408,77.6252578 94.89141,77.451 C94.9002459,77.2780465 94.8269712,77.1110603 94.69371,77.00046 C94.5751721,76.928499 94.4361494,76.8977957 94.29833,76.91314 L93.36972,76.91314 L93.36972,77.99342 L94.29833,77.99342 Z M94.22477,80.77474 L94.56957,80.77474 C94.7333224,80.7546035 94.8977427,80.8066258 95.02011,80.91729 C95.2162576,81.1547677 95.2162576,81.4980423 95.02011,81.73552 C94.8977427,81.8461842 94.7333224,81.8982065 94.56957,81.87807 L94.22477,81.87807 L94.22477,80.77474 Z M94.43167,80.94483 L94.43167,81.708 L94.57414,81.708 C94.6810849,81.723471 94.7892792,81.6896396 94.86836,81.616 C94.9848937,81.4405035 94.9848937,81.2122565 94.86836,81.03676 C94.7892821,80.9631152 94.6810854,80.9292831 94.57414,80.94476 L94.43167,80.94483 Z M96.04067,76.4534 L96.56932,76.4534 L96.56932,79.6714 L96.04067,79.6714 L96.04067,76.4534 Z M97.87954,78.23249 L97.87954,79.21168 L99.67248,79.21168 L99.67248,79.67142 L97.35089,79.67142 L97.35089,76.45342 L99.64943,76.45342 L99.64943,76.91316 L97.87954,76.91316 L97.87954,77.77277 L99.55754,77.77277 L99.55754,78.23251 L97.87954,78.23249 Z" id="Shape" fill="#4B4B4B" fill-rule="nonzero"></path>
            </g>
        </g>
    </g>
</svg>